<?xml version="1.0" standalone="no"?>
<!DOCTYPE svg PUBLIC "-//W3C//DTD SVG 20010904//EN"
 "http://www.w3.org/TR/2001/REC-SVG-20010904/DTD/svg10.dtd">
<svg version="1.0" xmlns="http://www.w3.org/2000/svg"
 width="600.000000pt" height="600.000000pt" viewBox="0 0 600.000000 600.000000"
 preserveAspectRatio="xMidYMid meet">
<metadata>
Created by potrace 1.14, written by Peter Selinger 2001-2017
</metadata>
<g transform="translate(0.000000,600.000000) scale(0.100000,-0.100000)"
fill="#000000" stroke="none">
<path d="M3072 5482 c-31 -5 -39 -25 -47 -125 -7 -87 -20 -117 -50 -117 -20 0
-99 -69 -112 -98 -7 -15 -12 -72 -13 -129 0 -98 -1 -103 -22 -108 -222 -48
-329 -81 -428 -130 -66 -33 -140 -97 -140 -121 0 -7 -6 -17 -13 -21 -7 -4 -54
-57 -106 -116 -78 -91 -91 -110 -80 -123 7 -8 18 -14 24 -12 7 2 54 51 105
111 107 124 139 145 319 212 73 27 138 58 157 75 34 30 77 46 150 56 l41 6 6
-38 c10 -60 8 -109 -5 -122 -6 -6 -11 -27 -10 -46 1 -29 -9 -49 -56 -108 -32
-40 -80 -109 -106 -153 -88 -146 -117 -184 -147 -190 -35 -8 -85 -63 -94 -105
-9 -41 -81 -92 -180 -126 -62 -22 -99 -58 -116 -114 -15 -48 -7 -43 -299 -220
-212 -129 -347 -219 -372 -247 -10 -10 -25 -50 -34 -89 -9 -38 -22 -83 -30
-100 -50 -121 -8 -244 109 -318 113 -73 262 -97 594 -97 397 0 705 53 1021
176 123 49 157 67 307 164 102 65 289 169 629 347 219 115 274 158 286 224 15
74 11 241 -5 270 -8 14 -14 37 -15 52 0 47 -89 521 -104 558 -8 19 -24 93 -36
165 -12 71 -31 145 -41 165 -11 19 -19 47 -19 63 0 16 -10 51 -22 79 -24 57
-64 83 -106 67 -14 -6 -50 -5 -90 1 -59 9 -71 15 -96 46 -33 41 -55 52 -395
208 -243 112 -309 136 -359 128z m83 -54 c2 -2 -22 -54 -52 -116 -44 -89 -53
-115 -44 -126 14 -17 189 -94 285 -126 l68 -22 24 28 c13 16 29 40 36 54 32
62 74 120 88 120 30 -1 225 -105 228 -123 3 -12 -3 -17 -22 -17 -51 0 -133
-40 -193 -94 -63 -58 -114 -140 -133 -218 -14 -56 -16 -56 -170 -64 l-115 -6
-70 72 c-38 39 -78 76 -87 81 -24 13 -24 79 0 110 14 17 21 49 25 109 3 47 15
111 27 142 11 33 20 82 20 117 0 84 6 94 48 87 19 -3 36 -6 37 -8z m-154 -722
c-52 -11 -61 -3 -31 29 l24 25 24 -22 24 -23 -41 -9z m435 -103 c3 -21 10 -55
14 -76 6 -27 5 -39 -3 -42 -7 -2 -26 -8 -44 -13 -32 -11 -33 -10 -98 71 l-65
82 43 6 c23 3 65 7 94 7 l52 2 7 -37z m-295 7 l24 -21 -35 17 c-43 21 -47 24
-28 24 9 0 26 -9 39 -20z m-33 -16 c17 -7 32 -16 32 -19 0 -3 -9 -24 -20 -46
-23 -44 -29 -45 -103 -7 -34 17 -36 21 -26 41 31 59 41 62 117 31z m1092 -81
c0 -14 -20 -53 -45 -89 -52 -72 -188 -219 -247 -265 l-39 -32 -207 63 c-114
34 -211 66 -215 70 -5 4 34 18 85 30 95 24 148 58 148 94 0 21 4 21 101 -17
l84 -33 3 -62 c3 -62 3 -63 30 -60 26 3 27 5 24 55 l-4 53 31 -6 c21 -5 40 0
65 15 36 23 108 111 147 181 24 43 39 44 39 3z m-1170 -18 l65 -34 -43 -1
c-34 0 -53 7 -89 35 -40 31 -43 35 -22 35 13 -1 53 -16 89 -35z m120 -35 c11
-7 6 -10 -20 -10 -26 0 -31 3 -20 10 8 5 17 10 20 10 3 0 12 -5 20 -10z m-184
-150 c38 -28 80 -59 93 -68 18 -13 22 -23 17 -40 -4 -12 -13 -22 -19 -22 -7 0
-39 28 -72 61 -33 34 -80 74 -104 90 l-45 29 31 0 c21 0 52 -16 99 -50z m192
38 c-6 -18 -25 -20 -31 -3 -5 10 0 15 14 15 12 0 19 -5 17 -12z m492 -174
c102 -30 187 -58 189 -60 6 -6 5 -7 -93 -68 -107 -67 -148 -78 -179 -47 -19
19 -22 33 -22 106 0 47 -3 85 -7 85 -15 0 -92 -99 -120 -155 -39 -77 -48 -165
-24 -230 29 -74 76 -92 165 -60 46 16 163 89 228 141 23 19 45 34 48 34 4 0 4
-35 1 -77 -12 -147 -13 -149 -61 -177 -24 -14 -105 -74 -182 -133 -76 -58
-164 -122 -196 -141 l-58 -35 -35 34 c-53 51 -130 171 -189 294 -28 61 -55
118 -58 127 -5 13 8 27 52 57 73 50 107 89 172 198 28 48 65 108 83 131 38 53
29 54 286 -24z m-812 41 c33 -7 139 -109 123 -119 -11 -7 -101 -36 -112 -36
-4 0 -19 18 -34 41 -16 22 -48 54 -72 71 -24 17 -43 35 -43 39 0 16 63 18 138
4z m-115 -181 c42 -34 57 -52 55 -67 -2 -11 -7 -22 -13 -23 -5 -2 -44 28 -85
66 -73 67 -74 70 -45 70 21 0 48 -14 88 -46z m1232 -120 c-14 -77 -28 -146
-31 -155 -4 -14 -72 -54 -79 -47 -2 2 2 56 9 120 l11 118 55 55 c29 30 56 53
58 51 2 -2 -8 -66 -23 -142z m-1457 12 c16 -19 44 -55 62 -81 l32 -46 -34 14
c-18 8 -63 29 -100 48 l-68 33 32 33 c18 18 35 33 39 33 4 0 20 -15 37 -34z
m1821 -109 l1 -114 -112 -60 c-62 -34 -185 -98 -273 -143 -213 -110 -244 -127
-426 -241 -438 -273 -692 -344 -1325 -373 -303 -14 -636 45 -718 126 -26 26
-28 34 -24 84 6 70 21 87 41 47 20 -38 77 -77 147 -100 48 -16 90 -18 350 -17
453 1 633 29 995 156 282 99 434 180 625 333 136 109 221 161 458 277 122 60
228 118 234 128 7 10 15 17 19 14 4 -2 8 -55 8 -117z m-1925 -59 c100 -50 104
-53 110 -89 4 -28 16 -46 42 -66 20 -15 85 -70 145 -121 110 -94 133 -128 109
-157 -18 -21 -54 -18 -135 10 -96 34 -165 32 -430 -11 -371 -60 -531 -56 -600
16 -43 44 -32 67 60 128 158 105 345 213 357 206 6 -4 8 -3 5 4 -8 12 189 131
220 132 7 0 60 -23 117 -52z"/>
<path d="M1330 2400 l0 -190 35 0 35 0 0 70 0 70 46 0 c45 0 45 0 42 33 -3 30
-6 32 -45 35 l-43 3 0 50 0 49 50 0 50 0 0 35 0 35 -85 0 -85 0 0 -190z"/>
<path d="M1646 2576 c-84 -31 -121 -96 -114 -196 8 -109 92 -176 208 -168 77
5 122 37 157 106 62 126 -15 256 -160 268 -31 3 -67 -1 -91 -10z m155 -79 c62
-42 72 -131 21 -182 -31 -32 -59 -39 -124 -33 -69 7 -108 47 -108 112 0 48 33
100 74 116 41 17 102 11 137 -13z"/>
<path d="M2090 2581 c-84 -27 -125 -74 -136 -153 -16 -118 71 -218 189 -218
125 0 203 82 195 205 -4 71 -35 123 -90 151 -36 18 -122 27 -158 15z m157
-105 c35 -38 43 -80 23 -130 -29 -77 -188 -91 -234 -21 -62 94 11 202 128 192
42 -4 55 -10 83 -41z"/>
<path d="M2370 2555 c0 -35 0 -35 45 -35 l45 0 0 -155 0 -155 35 0 35 0 0 155
0 155 45 0 c45 0 45 0 45 35 l0 35 -125 0 -125 0 0 -35z"/>
<path d="M2714 2576 c-41 -18 -64 -52 -64 -94 0 -66 44 -102 125 -102 70 0
107 -47 67 -83 -14 -13 -39 -17 -105 -17 l-87 0 0 -35 0 -35 85 0 c125 0 175
32 175 113 0 79 -52 127 -138 127 -35 0 -62 14 -62 31 0 4 7 15 16 23 11 12
36 16 90 16 l74 0 0 35 0 35 -72 0 c-40 -1 -87 -7 -104 -14z"/>
<path d="M2940 2555 c0 -35 0 -35 45 -35 l45 0 0 -155 0 -155 35 0 35 0 0 155
0 155 45 0 c45 0 45 0 45 35 l0 35 -125 0 -125 0 0 -35z"/>
<path d="M3316 2576 c-84 -31 -121 -96 -114 -196 8 -109 92 -176 208 -168 77
5 122 37 157 106 62 126 -15 256 -160 268 -31 3 -67 -1 -91 -10z m139 -70 c43
-18 67 -56 69 -105 2 -83 -53 -127 -149 -119 -50 4 -63 10 -87 37 -22 24 -28
41 -28 75 0 97 97 152 195 112z"/>
<path d="M3630 2400 l0 -190 30 0 30 0 0 155 0 155 53 0 c67 0 97 -20 97 -64
0 -41 -22 -62 -75 -71 -82 -15 -83 -34 -9 -114 53 -58 59 -61 102 -61 l46 0
-54 55 c-29 30 -51 57 -48 61 4 3 21 13 40 22 70 36 87 136 32 193 -35 36 -79
49 -171 49 l-73 0 0 -190z"/>
<path d="M3950 2400 l0 -190 90 0 90 0 0 35 0 35 -60 0 -60 0 0 45 0 45 50 0
50 0 0 35 0 35 -50 0 -50 0 0 40 0 40 60 0 60 0 0 35 0 35 -90 0 -90 0 0 -190z"/>
</g>
</svg>
